<svg width="168" height="55" viewBox="0 0 168 55" fill="none" xmlns="http://www.w3.org/2000/svg">
<path d="M34.781 10.531C34.8507 10.4612 34.906 10.3785 34.9438 10.2873C34.9815 10.1962 35.0009 10.0986 35.0009 9.99997C35.0009 9.90135 34.9815 9.8037 34.9438 9.7126C34.906 9.62149 34.8507 9.5387 34.781 9.46897C34.7112 9.39924 34.6285 9.34392 34.5373 9.30619C34.4462 9.26845 34.3486 9.24902 34.25 9.24902C34.1514 9.24902 34.0537 9.26845 33.9626 9.30619C33.8715 9.34392 33.7887 9.39924 33.719 9.46897L31.25 11.9395L30.281 10.969C30.1401 10.8281 29.9491 10.749 29.75 10.749C29.5508 10.749 29.3598 10.8281 29.219 10.969C29.0781 11.1098 28.999 11.3008 28.999 11.5C28.999 11.5986 29.0184 11.6962 29.0562 11.7873C29.0939 11.8785 29.1492 11.9612 29.219 12.031L30.719 13.531C30.7886 13.6008 30.8714 13.6562 30.9625 13.694C31.0536 13.7318 31.1513 13.7513 31.25 13.7513C31.3486 13.7513 31.4463 13.7318 31.5374 13.694C31.6285 13.6562 31.7113 13.6008 31.781 13.531L34.781 10.531ZM39.125 10.75C38.8266 10.75 38.5405 10.8685 38.3295 11.0795C38.1185 11.2905 38 11.5766 38 11.875C38 12.1733 38.1185 12.4595 38.3295 12.6705C38.5405 12.8814 38.8266 13 39.125 13H51.875C52.1733 13 52.4595 12.8814 52.6705 12.6705C52.8814 12.4595 53 12.1733 53 11.875C53 11.5766 52.8814 11.2905 52.6705 11.0795C52.4595 10.8685 52.1733 10.75 51.875 10.75H39.125ZM39.125 18.25C38.8266 18.25 38.5405 18.3685 38.3295 18.5795C38.1185 18.7905 38 19.0766 38 19.375C38 19.6733 38.1185 19.9595 38.3295 20.1705C38.5405 20.3814 38.8266 20.5 39.125 20.5H51.875C52.1733 20.5 52.4595 20.3814 52.6705 20.1705C52.8814 19.9595 53 19.6733 53 19.375C53 19.0766 52.8814 18.7905 52.6705 18.5795C52.4595 18.3685 52.1733 18.25 51.875 18.25H39.125ZM38 26.875C38 26.5766 38.1185 26.2905 38.3295 26.0795C38.5405 25.8685 38.8266 25.75 39.125 25.75H51.875C52.1733 25.75 52.4595 25.8685 52.6705 26.0795C52.8814 26.2905 53 26.5766 53 26.875C53 27.1733 52.8814 27.4595 52.6705 27.6705C52.4595 27.8814 52.1733 28 51.875 28H39.125C38.8266 28 38.5405 27.8814 38.3295 27.6705C38.1185 27.4595 38 27.1733 38 26.875ZM34.781 18.781C34.9218 18.6401 35.0009 18.4491 35.0009 18.25C35.0009 18.0508 34.9218 17.8598 34.781 17.719C34.6401 17.5781 34.4491 17.499 34.25 17.499C34.0508 17.499 33.8598 17.5781 33.719 17.719L31.25 20.1895L30.281 19.219C30.1401 19.0781 29.9491 18.999 29.75 18.999C29.5508 18.999 29.3598 19.0781 29.219 19.219C29.0781 19.3598 28.999 19.5508 28.999 19.75C28.999 19.9491 29.0781 20.1401 29.219 20.281L30.719 21.781C30.7886 21.8508 30.8714 21.9062 30.9625 21.944C31.0536 21.9818 31.1513 22.0013 31.25 22.0013C31.3486 22.0013 31.4463 21.9818 31.5374 21.944C31.6285 21.9062 31.7113 21.8508 31.781 21.781L34.781 18.781ZM34.781 25.219C34.8508 25.2886 34.9062 25.3714 34.944 25.4625C34.9818 25.5536 35.0013 25.6513 35.0013 25.75C35.0013 25.8486 34.9818 25.9463 34.944 26.0374C34.9062 26.1285 34.8508 26.2113 34.781 26.281L31.781 29.281C31.7113 29.3508 31.6285 29.4062 31.5374 29.444C31.4463 29.4818 31.3486 29.5013 31.25 29.5013C31.1513 29.5013 31.0536 29.4818 30.9625 29.444C30.8714 29.4062 30.7886 29.3508 30.719 29.281L29.219 27.781C29.0781 27.6401 28.999 27.4491 28.999 27.25C28.999 27.0508 29.0781 26.8598 29.219 26.719C29.3598 26.5781 29.5508 26.499 29.75 26.499C29.9491 26.499 30.1401 26.5781 30.281 26.719L31.25 27.6895L33.719 25.219C33.7886 25.1491 33.8714 25.0937 33.9625 25.0559C34.0536 25.0181 34.1513 24.9986 34.25 24.9986C34.3486 24.9986 34.4463 25.0181 34.5374 25.0559C34.6285 25.0937 34.7113 25.1491 34.781 25.219Z" fill="#FFE5B1"/>
<path d="M9.345 31.195C6.885 31.195 4.55 31.055 2.34 30.775V9.415C3.46 9.155 4.765 8.955 6.255 8.815C7.755 8.665 9.185 8.59 10.545 8.59C15.095 8.59 18.52 9.525 20.82 11.395C23.13 13.255 24.285 16.09 24.285 19.9C24.285 22.54 23.735 24.69 22.635 26.35C21.545 28.01 19.9 29.235 17.7 30.025C15.51 30.805 12.725 31.195 9.345 31.195ZM10.725 26.995C12.605 26.995 14.14 26.745 15.33 26.245C16.53 25.745 17.42 24.97 18 23.92C18.58 22.87 18.87 21.515 18.87 19.855C18.87 17.425 18.205 15.635 16.875 14.485C15.545 13.335 13.505 12.76 10.755 12.76C9.765 12.76 8.73 12.85 7.65 13.03V26.86C8.41 26.95 9.435 26.995 10.725 26.995Z" fill="white"/>
<path d="M74.825 8.8H79.835V31H74.495L63.35 16.045V31H58.34V8.8H63.68L74.825 23.755V8.8ZM90.3521 31V12.97H82.4771V8.8H103.537V12.97H95.6621V31H90.3521ZM120.131 31L118.016 25.12H108.446L106.331 31H101.156L109.436 8.8H117.071L125.366 31H120.131ZM109.871 21.145H116.591L113.231 11.8L109.871 21.145ZM133.828 31.285C131.258 31.285 128.883 30.945 126.703 30.265V26.095C127.713 26.435 128.883 26.705 130.213 26.905C131.543 27.095 132.763 27.19 133.873 27.19C135.483 27.19 136.633 26.975 137.323 26.545C138.013 26.115 138.358 25.48 138.358 24.64C138.358 24.17 138.253 23.785 138.043 23.485C137.833 23.185 137.478 22.93 136.978 22.72C136.478 22.51 135.778 22.32 134.878 22.15L133.048 21.79C130.638 21.32 128.888 20.565 127.798 19.525C126.718 18.475 126.178 17.075 126.178 15.325C126.178 13.135 127.033 11.455 128.743 10.285C130.463 9.105 133.008 8.515 136.378 8.515C138.608 8.515 140.618 8.755 142.408 9.235V13.42C141.598 13.17 140.668 12.975 139.618 12.835C138.578 12.685 137.538 12.61 136.498 12.61C134.678 12.61 133.373 12.83 132.583 13.27C131.803 13.7 131.413 14.325 131.413 15.145C131.413 15.585 131.503 15.955 131.683 16.255C131.863 16.545 132.168 16.79 132.598 16.99C133.038 17.19 133.648 17.37 134.428 17.53L136.273 17.89C138.033 18.23 139.448 18.695 140.518 19.285C141.598 19.865 142.378 20.575 142.858 21.415C143.348 22.245 143.593 23.23 143.593 24.37C143.593 25.8 143.203 27.035 142.423 28.075C141.643 29.115 140.518 29.91 139.048 30.46C137.588 31.01 135.848 31.285 133.828 31.285ZM161.556 31L154.851 21.91H152.361V31H147.051V8.8H152.361V17.38H154.851L161.046 8.8H166.671L158.946 19.54L167.391 31H161.556Z" fill="white"/>
<rect x="90.3" y="29" width="5.4" height="26" fill="white"/>
</svg>
