<svg width="100" height="100" viewBox="0 0 100 100" fill="none" xmlns="http://www.w3.org/2000/svg">
<path d="M87.3086 18.75H12.6992C10.9901 18.75 9.35093 19.4284 8.14169 20.6362C6.93245 21.8439 6.25207 23.4823 6.25 25.1914V74.8008C6.25 76.5099 6.9284 78.1491 8.13617 79.3583C9.34394 80.5676 10.9823 81.2479 12.6914 81.25H87.3008C89.0099 81.25 90.6491 80.5716 91.8583 79.3638C93.0675 78.1561 93.7479 76.5177 93.75 74.8086V25.1992C93.75 23.4901 93.0716 21.8509 91.8638 20.6417C90.6561 19.4325 89.0177 18.7521 87.3086 18.75ZM87.5 74.8086C87.5 74.8337 87.4951 74.8586 87.4854 74.8818C87.4758 74.9051 87.4617 74.9262 87.4439 74.9439C87.4262 74.9617 87.4051 74.9758 87.3818 74.9854C87.3586 74.9951 87.3337 75 87.3086 75H12.6992C12.6741 75 12.6492 74.9951 12.626 74.9854C12.6027 74.9758 12.5816 74.9617 12.5639 74.9439C12.5461 74.9262 12.532 74.9051 12.5224 74.8818C12.5128 74.8586 12.5078 74.8337 12.5078 74.8086V25.1992C12.5078 25.1485 12.528 25.0998 12.5639 25.0639C12.5998 25.028 12.6485 25.0078 12.6992 25.0078H87.3086C87.3594 25.0078 87.408 25.028 87.4439 25.0639C87.4798 25.0998 87.5 25.1485 87.5 25.1992V74.8086ZM81.25 50C81.25 50.8288 80.9208 51.6237 80.3347 52.2097C79.7487 52.7958 78.9538 53.125 78.125 53.125H21.875C21.0462 53.125 20.2513 52.7958 19.6653 52.2097C19.0792 51.6237 18.75 50.8288 18.75 50C18.75 49.1712 19.0792 48.3763 19.6653 47.7903C20.2513 47.2042 21.0462 46.875 21.875 46.875H78.125C78.9538 46.875 79.7487 47.2042 80.3347 47.7903C80.9208 48.3763 81.25 49.1712 81.25 50ZM81.25 37.5C81.25 38.3288 80.9208 39.1237 80.3347 39.7097C79.7487 40.2958 78.9538 40.625 78.125 40.625H21.875C21.0462 40.625 20.2513 40.2958 19.6653 39.7097C19.0792 39.1237 18.75 38.3288 18.75 37.5C18.75 36.6712 19.0792 35.8763 19.6653 35.2903C20.2513 34.7042 21.0462 34.375 21.875 34.375H78.125C78.9538 34.375 79.7487 34.7042 80.3347 35.2903C80.9208 35.8763 81.25 36.6712 81.25 37.5ZM28.125 62.5C28.125 63.3288 27.7958 64.1237 27.2097 64.7097C26.6237 65.2958 25.8288 65.625 25 65.625H21.875C21.0462 65.625 20.2513 65.2958 19.6653 64.7097C19.0792 64.1237 18.75 63.3288 18.75 62.5C18.75 61.6712 19.0792 60.8763 19.6653 60.2903C20.2513 59.7042 21.0462 59.375 21.875 59.375H25C25.8288 59.375 26.6237 59.7042 27.2097 60.2903C27.7958 60.8763 28.125 61.6712 28.125 62.5ZM65.625 62.5C65.625 63.3288 65.2958 64.1237 64.7097 64.7097C64.1237 65.2958 63.3288 65.625 62.5 65.625H37.5C36.6712 65.625 35.8763 65.2958 35.2903 64.7097C34.7042 64.1237 34.375 63.3288 34.375 62.5C34.375 61.6712 34.7042 60.8763 35.2903 60.2903C35.8763 59.7042 36.6712 59.375 37.5 59.375H62.5C63.3288 59.375 64.1237 59.7042 64.7097 60.2903C65.2958 60.8763 65.625 61.6712 65.625 62.5ZM81.25 62.5C81.25 63.3288 80.9208 64.1237 80.3347 64.7097C79.7487 65.2958 78.9538 65.625 78.125 65.625H75C74.1712 65.625 73.3763 65.2958 72.7903 64.7097C72.2042 64.1237 71.875 63.3288 71.875 62.5C71.875 61.6712 72.2042 60.8763 72.7903 60.2903C73.3763 59.7042 74.1712 59.375 75 59.375H78.125C78.9538 59.375 79.7487 59.7042 80.3347 60.2903C80.9208 60.8763 81.25 61.6712 81.25 62.5Z" fill="#8CAAB9" fill-opacity="0.3"/>
</svg>
