<svg width="30" height="30" viewBox="0 0 30 30" fill="none" xmlns="http://www.w3.org/2000/svg">
<path d="M18.75 10H18.7625M3.75 7.5C3.75 6.50544 4.14509 5.55161 4.84835 4.84835C5.55161 4.14509 6.50544 3.75 7.5 3.75H22.5C23.4946 3.75 24.4484 4.14509 25.1517 4.84835C25.8549 5.55161 26.25 6.50544 26.25 7.5V22.5C26.25 23.4946 25.8549 24.4484 25.1517 25.1517C24.4484 25.8549 23.4946 26.25 22.5 26.25H7.5C6.50544 26.25 5.55161 25.8549 4.84835 25.1517C4.14509 24.4484 3.75 23.4946 3.75 22.5V7.5Z" stroke="#FFE5B1" stroke-opacity="0.6" stroke-width="2" stroke-linecap="round" stroke-linejoin="round"/>
<path d="M3.75 20L10 13.75C11.16 12.6338 12.59 12.6338 13.75 13.75L20 20" stroke="#FFE5B1" stroke-opacity="0.6" stroke-width="2" stroke-linecap="round" stroke-linejoin="round"/>
<path d="M17.5 17.5L18.75 16.25C19.91 15.1338 21.34 15.1338 22.5 16.25L26.25 20" stroke="#FFE5B1" stroke-opacity="0.6" stroke-width="2" stroke-linecap="round" stroke-linejoin="round"/>
</svg>
