<svg width="100" height="100" viewBox="0 0 100 100" fill="none" xmlns="http://www.w3.org/2000/svg">
<path d="M33.3333 8.3335H66.6666C73.2971 8.3335 79.6559 10.9674 84.3443 15.6558C89.0327 20.3442 91.6666 26.7031 91.6666 33.3335V66.6668C91.6666 73.2972 89.0327 79.6561 84.3443 84.3445C79.6559 89.0329 73.2971 91.6668 66.6666 91.6668H33.3333C26.7029 91.6668 20.3441 89.0329 15.6556 84.3445C10.9672 79.6561 8.33331 73.2972 8.33331 66.6668L8.33331 33.3335C8.33331 26.7031 10.9672 20.3442 15.6556 15.6558C20.3441 10.9674 26.7029 8.3335 33.3333 8.3335ZM33.3333 16.6668C28.913 16.6668 24.6738 18.4228 21.5482 21.5484C18.4226 24.674 16.6666 28.9132 16.6666 33.3335V66.6668C16.6666 71.0871 18.4226 75.3263 21.5482 78.4519C24.6738 81.5775 28.913 83.3335 33.3333 83.3335H66.6666C71.0869 83.3335 75.3261 81.5775 78.4518 78.4519C81.5774 75.3263 83.3333 71.0871 83.3333 66.6668V33.3335C83.3333 28.9132 81.5774 24.674 78.4518 21.5484C75.3261 18.4228 71.0869 16.6668 66.6666 16.6668H33.3333ZM58.3333 45.8335H70.8333C71.9384 45.8335 72.9982 46.2725 73.7796 47.0539C74.561 47.8353 75 48.8951 75 50.0002C75 51.1052 74.561 52.165 73.7796 52.9464C72.9982 53.7278 71.9384 54.1668 70.8333 54.1668H58.3333C57.2282 54.1668 56.1684 53.7278 55.387 52.9464C54.6056 52.165 54.1666 51.1052 54.1666 50.0002C54.1666 48.8951 54.6056 47.8353 55.387 47.0539C56.1684 46.2725 57.2282 45.8335 58.3333 45.8335ZM50 62.5002H70.8333C71.9384 62.5002 72.9982 62.9391 73.7796 63.7206C74.561 64.502 75 65.5618 75 66.6668C75 67.7719 74.561 68.8317 73.7796 69.6131C72.9982 70.3945 71.9384 70.8335 70.8333 70.8335H50C48.8949 70.8335 47.8351 70.3945 47.0537 69.6131C46.2723 68.8317 45.8333 67.7719 45.8333 66.6668C45.8333 65.5618 46.2723 64.502 47.0537 63.7206C47.8351 62.9391 48.8949 62.5002 50 62.5002ZM50 29.1668H70.8333C71.9384 29.1668 72.9982 29.6058 73.7796 30.3872C74.561 31.1686 75 32.2284 75 33.3335C75 34.4386 74.561 35.4984 73.7796 36.2798C72.9982 37.0612 71.9384 37.5002 70.8333 37.5002H50C48.8949 37.5002 47.8351 37.0612 47.0537 36.2798C46.2723 35.4984 45.8333 34.4386 45.8333 33.3335C45.8333 32.2284 46.2723 31.1686 47.0537 30.3872C47.8351 29.6058 48.8949 29.1668 50 29.1668ZM32.6166 51.0127L41.4583 42.1668C41.8454 41.78 42.305 41.4732 42.8107 41.2639C43.3164 41.0546 43.8583 40.947 44.4056 40.9472C44.9529 40.9474 45.4948 41.0554 46.0003 41.265C46.5059 41.4746 46.9652 41.7818 47.3521 42.1689C47.7389 42.556 48.0457 43.0156 48.255 43.5213C48.4642 44.027 48.5718 44.5689 48.5717 45.1162C48.5715 45.6635 48.4635 46.2054 48.2539 46.7109C48.0442 47.2165 47.7371 47.6758 47.35 48.0627L35.5666 59.846C35.1797 60.2334 34.7201 60.5407 34.2143 60.7504C33.7085 60.9601 33.1663 61.068 32.6187 61.068C32.0712 61.068 31.529 60.9601 31.0231 60.7504C30.5173 60.5407 30.0578 60.2334 29.6708 59.846L23.7791 53.9585C23.0202 53.1726 22.6002 52.1201 22.6097 51.0277C22.6192 49.9352 23.0574 48.8901 23.8299 48.1176C24.6024 47.3451 25.6475 46.9068 26.74 46.8974C27.8325 46.8879 28.885 47.3078 29.6708 48.0668L32.6166 51.0127Z" fill="#8CAAB9" fill-opacity="0.3"/>
</svg>
