<svg width="100" height="100" viewBox="0 0 100 100" fill="none" xmlns="http://www.w3.org/2000/svg">
<path d="M37.5 54.1668H62.5M37.5 70.8335H50M16.6667 16.6668V83.3335C16.6667 85.5436 17.5446 87.6632 19.1074 89.2261C20.6702 90.7889 22.7899 91.6668 25 91.6668H75C77.2101 91.6668 79.3297 90.7889 80.8925 89.2261C82.4553 87.6632 83.3333 85.5436 83.3333 83.3335V34.7585C83.3332 33.6483 83.1112 32.5494 82.6805 31.5262C82.2497 30.503 81.6189 29.5762 80.825 28.8002L62.325 10.7085C60.7682 9.18624 58.6774 8.33377 56.5 8.3335H25C22.7899 8.3335 20.6702 9.21147 19.1074 10.7743C17.5446 12.3371 16.6667 14.4567 16.6667 16.6668Z" stroke="#8CAAB9" stroke-opacity="0.3" stroke-width="6.66667" stroke-linecap="round" stroke-linejoin="round"/>
<path d="M58.3333 8.3335V25.0002C58.3333 27.2103 59.2113 29.3299 60.7741 30.8927C62.3369 32.4555 64.4565 33.3335 66.6666 33.3335H83.3333" stroke="#8CAAB9" stroke-opacity="0.3" stroke-width="6.66667" stroke-linejoin="round"/>
</svg>
