<svg width="30" height="30" viewBox="0 0 30 30" fill="none" xmlns="http://www.w3.org/2000/svg">
<path d="M7.5 8.5975V7.5C7.5 6.75408 7.79632 6.03871 8.32376 5.51126C8.85121 4.98382 9.56658 4.6875 10.3125 4.6875H19.6875C20.4334 4.6875 21.1488 4.98382 21.6762 5.51126C22.2037 6.03871 22.5 6.75408 22.5 7.5V8.5975M7.5 8.5975C7.79375 8.49375 8.10875 8.4375 8.4375 8.4375H21.5625C21.8913 8.4375 22.2063 8.49375 22.5 8.5975M7.5 8.5975C6.95152 8.79142 6.47666 9.15065 6.14086 9.6257C5.80505 10.1008 5.62482 10.6682 5.625 11.25V12.3475M22.5 8.5975C23.0485 8.79142 23.5233 9.15065 23.8591 9.6257C24.1949 10.1008 24.3752 10.6682 24.375 11.25V12.3475M5.625 12.3475C5.91875 12.2438 6.23375 12.1875 6.5625 12.1875H23.4375C23.7568 12.1871 24.0739 12.2412 24.375 12.3475M5.625 12.3475C4.5325 12.7338 3.75 13.775 3.75 15V22.5C3.75 23.2459 4.04632 23.9613 4.57376 24.4887C5.10121 25.0162 5.81658 25.3125 6.5625 25.3125H23.4375C24.1834 25.3125 24.8988 25.0162 25.4262 24.4887C25.9537 23.9613 26.25 23.2459 26.25 22.5V15C26.2502 14.4182 26.0699 13.8508 25.7341 13.3757C25.3983 12.9006 24.9235 12.5414 24.375 12.3475" stroke="white" stroke-opacity="0.5" stroke-width="1.875" stroke-linecap="round" stroke-linejoin="round"/>
</svg>
