<svg width="40" height="40" viewBox="0 0 40 40" fill="none" xmlns="http://www.w3.org/2000/svg">
<path d="M18.6 24.2L25.65 17.15L24.25 15.75L18.6 21.4L15.75 18.55L14.35 19.95L18.6 24.2ZM13 29C12.45 29 11.979 28.804 11.587 28.412C11.195 28.02 10.9993 27.5493 11 27V13C11 12.45 11.196 11.979 11.588 11.587C11.98 11.195 12.4507 10.9993 13 11H27C27.55 11 28.021 11.196 28.413 11.588C28.805 11.98 29.0007 12.4507 29 13V27C29 27.55 28.804 28.021 28.412 28.413C28.02 28.805 27.5493 29.0007 27 29H13ZM13 27H27V13H13V27Z" fill="#FFE5B1"/>
<circle cx="20" cy="20" r="20" fill="#FFE5B1" fill-opacity="0.3"/>
</svg>
