<svg width="30" height="30" viewBox="0 0 30 30" fill="none" xmlns="http://www.w3.org/2000/svg">
<path d="M13.75 29.4875V24.9875C7.4875 24.6625 2.5 19.4625 2.5 13.125C2.5 6.575 7.825 1.25 14.375 1.25C20.925 1.25 26.25 6.575 26.25 13.125C26.25 19.3125 21.95 25.5375 15.5375 28.625L13.75 29.4875ZM14.375 3.75C9.2 3.75 5 7.95 5 13.125C5 18.3 9.2 22.5 14.375 22.5H16.25V25.375C20.8 22.5 23.75 17.775 23.75 13.125C23.75 7.95 19.55 3.75 14.375 3.75ZM13.125 18.125H15.625V20.625H13.125V18.125ZM15.625 16.25H13.125C13.125 12.1875 16.875 12.5 16.875 10C16.875 8.625 15.75 7.5 14.375 7.5C13 7.5 11.875 8.625 11.875 10H9.375C9.375 7.2375 11.6125 5 14.375 5C17.1375 5 19.375 7.2375 19.375 10C19.375 13.125 15.625 13.4375 15.625 16.25Z" fill="white"/>
</svg>
