<svg width="30" height="30" viewBox="0 0 30 30" fill="none" xmlns="http://www.w3.org/2000/svg">
<path d="M15 18.75V22.5M27.5 15.255V17.1563C27.5 22.0313 27.5 24.47 26.035 25.985C24.5712 27.5 22.2137 27.5 17.5 27.5H12.5C7.78625 27.5 5.42875 27.5 3.965 25.985C2.5 24.47 2.5 22.0325 2.5 17.1563V15.255C2.5 12.3938 2.5 10.9637 3.15 9.77875C3.7975 8.5925 4.98375 7.8575 7.355 6.385L9.855 4.83375C12.3612 3.2775 13.615 2.5 15 2.5C16.385 2.5 17.6375 3.2775 20.145 4.83375L22.645 6.385C25.0162 7.8575 26.2025 8.5925 26.8513 9.77875" stroke="white" stroke-opacity="0.5" stroke-width="3" stroke-linecap="round"/>
</svg>
