<svg width="30" height="30" viewBox="0 0 30 30" fill="none" xmlns="http://www.w3.org/2000/svg">
<g clip-path="url(#clip0_60_409)">
<path fill-rule="evenodd" clip-rule="evenodd" d="M20 17.5C21.6576 17.5 23.2473 18.1585 24.4194 19.3306C25.5915 20.5027 26.25 22.0924 26.25 23.75V26.25C26.25 26.5815 26.1183 26.8995 25.8839 27.1339C25.6495 27.3683 25.3315 27.5 25 27.5C24.6685 27.5 24.3505 27.3683 24.1161 27.1339C23.8817 26.8995 23.75 26.5815 23.75 26.25V23.75C23.75 22.7554 23.3549 21.8016 22.6517 21.0983C21.9484 20.3951 20.9946 20 20 20H10C9.00544 20 8.05161 20.3951 7.34835 21.0983C6.64509 21.8016 6.25 22.7554 6.25 23.75V26.25C6.25 26.5815 6.1183 26.8995 5.88388 27.1339C5.64946 27.3683 5.33152 27.5 5 27.5C4.66848 27.5 4.35054 27.3683 4.11612 27.1339C3.8817 26.8995 3.75 26.5815 3.75 26.25V23.75C3.75 22.0924 4.40848 20.5027 5.58058 19.3306C6.75269 18.1585 8.3424 17.5 10 17.5H20ZM25 10C25.3315 10 25.6495 10.1317 25.8839 10.3661C26.1183 10.6005 26.25 10.9185 26.25 11.25V12.5H27.5C27.8315 12.5 28.1495 12.6317 28.3839 12.8661C28.6183 13.1005 28.75 13.4185 28.75 13.75C28.75 14.0815 28.6183 14.3995 28.3839 14.6339C28.1495 14.8683 27.8315 15 27.5 15H26.25V16.25C26.25 16.5815 26.1183 16.8995 25.8839 17.1339C25.6495 17.3683 25.3315 17.5 25 17.5C24.6685 17.5 24.3505 17.3683 24.1161 17.1339C23.8817 16.8995 23.75 16.5815 23.75 16.25V15H22.5C22.1685 15 21.8505 14.8683 21.6161 14.6339C21.3817 14.3995 21.25 14.0815 21.25 13.75C21.25 13.4185 21.3817 13.1005 21.6161 12.8661C21.8505 12.6317 22.1685 12.5 22.5 12.5H23.75V11.25C23.75 10.9185 23.8817 10.6005 24.1161 10.3661C24.3505 10.1317 24.6685 10 25 10ZM15 2.5C16.6576 2.5 18.2473 3.15848 19.4194 4.33058C20.5915 5.50269 21.25 7.0924 21.25 8.75C21.25 10.4076 20.5915 11.9973 19.4194 13.1694C18.2473 14.3415 16.6576 15 15 15C13.3424 15 11.7527 14.3415 10.5806 13.1694C9.40848 11.9973 8.75 10.4076 8.75 8.75C8.75 7.0924 9.40848 5.50269 10.5806 4.33058C11.7527 3.15848 13.3424 2.5 15 2.5ZM15 5C14.5075 5 14.0199 5.097 13.5649 5.28545C13.11 5.47391 12.6966 5.75013 12.3483 6.09835C12.0001 6.44657 11.7239 6.85997 11.5355 7.31494C11.347 7.76991 11.25 8.25754 11.25 8.75C11.25 9.24246 11.347 9.73009 11.5355 10.1851C11.7239 10.64 12.0001 11.0534 12.3483 11.4017C12.6966 11.7499 13.11 12.0261 13.5649 12.2145C14.0199 12.403 14.5075 12.5 15 12.5C15.9946 12.5 16.9484 12.1049 17.6517 11.4017C18.3549 10.6984 18.75 9.74456 18.75 8.75C18.75 7.75544 18.3549 6.80161 17.6517 6.09835C16.9484 5.39509 15.9946 5 15 5Z" fill="white"/>
</g>
<defs>
<clipPath id="clip0_60_409">
<rect width="30" height="30" fill="white"/>
</clipPath>
</defs>
</svg>
