<svg width="100" height="100" viewBox="0 0 100 100" fill="none" xmlns="http://www.w3.org/2000/svg">
<path d="M90.4586 84.5669L83.0169 77.1252C83.2044 76.4461 83.3336 75.7419 83.3336 75.0002V45.8336H75.0002V69.1086L30.8919 25.0002H54.1669V16.6669H25.0002C24.2586 16.6669 23.5544 16.7961 22.8752 16.9836L15.4586 9.56689L9.56689 15.4586L84.5669 90.4586L90.4586 84.5669ZM16.6669 33.8377V75.0002C16.6669 79.5961 20.4044 83.3336 25.0002 83.3336H66.1627L57.8294 75.0002H25.0002V42.1711L16.6669 33.8377Z" fill="white" fill-opacity="0.3"/>
<path d="M75 37.5C81.9036 37.5 87.5 31.9036 87.5 25C87.5 18.0964 81.9036 12.5 75 12.5C68.0964 12.5 62.5 18.0964 62.5 25C62.5 31.9036 68.0964 37.5 75 37.5Z" fill="#FFE5B1"/>
</svg>
