<svg width="24" height="24" viewBox="0 0 24 24" fill="none" xmlns="http://www.w3.org/2000/svg">
<path d="M12 1.5C11.4033 1.5 10.831 1.73705 10.409 2.15901C9.98705 2.58097 9.75 3.15326 9.75 3.75C9.75 4.34674 9.98705 4.91903 10.409 5.34099C10.831 5.76295 11.4033 6 12 6C12.5967 6 13.169 5.76295 13.591 5.34099C14.0129 4.91903 14.25 4.34674 14.25 3.75C14.25 3.15326 14.0129 2.58097 13.591 2.15901C13.169 1.73705 12.5967 1.5 12 1.5ZM8.25 3.75C8.25 2.75544 8.64509 1.80161 9.34835 1.09835C10.0516 0.395088 11.0054 0 12 0C12.9946 0 13.9484 0.395088 14.6517 1.09835C15.3549 1.80161 15.75 2.75544 15.75 3.75C15.75 4.74456 15.3549 5.69839 14.6517 6.40165C13.9484 7.10491 12.9946 7.5 12 7.5C11.0054 7.5 10.0516 7.10491 9.34835 6.40165C8.64509 5.69839 8.25 4.74456 8.25 3.75ZM20.25 3C19.8522 3 19.4706 3.15804 19.1893 3.43934C18.908 3.72064 18.75 4.10218 18.75 4.5C18.75 4.89782 18.908 5.27936 19.1893 5.56066C19.4706 5.84196 19.8522 6 20.25 6C20.6478 6 21.0294 5.84196 21.3107 5.56066C21.592 5.27936 21.75 4.89782 21.75 4.5C21.75 4.10218 21.592 3.72064 21.3107 3.43934C21.0294 3.15804 20.6478 3 20.25 3ZM17.25 4.5C17.25 3.70435 17.5661 2.94129 18.1287 2.37868C18.6913 1.81607 19.4544 1.5 20.25 1.5C21.0456 1.5 21.8087 1.81607 22.3713 2.37868C22.9339 2.94129 23.25 3.70435 23.25 4.5C23.25 5.29565 22.9339 6.05871 22.3713 6.62132C21.8087 7.18393 21.0456 7.5 20.25 7.5C19.4544 7.5 18.6913 7.18393 18.1287 6.62132C17.5661 6.05871 17.25 5.29565 17.25 4.5ZM2.25 4.5C2.25 4.10218 2.40804 3.72064 2.68934 3.43934C2.97064 3.15804 3.35218 3 3.75 3C4.14782 3 4.52936 3.15804 4.81066 3.43934C5.09196 3.72064 5.25 4.10218 5.25 4.5C5.25 4.89782 5.09196 5.27936 4.81066 5.56066C4.52936 5.84196 4.14782 6 3.75 6C3.35218 6 2.97064 5.84196 2.68934 5.56066C2.40804 5.27936 2.25 4.89782 2.25 4.5ZM3.75 1.5C2.95435 1.5 2.19129 1.81607 1.62868 2.37868C1.06607 2.94129 0.75 3.70435 0.75 4.5C0.75 5.29565 1.06607 6.05871 1.62868 6.62132C2.19129 7.18393 2.95435 7.5 3.75 7.5C4.54565 7.5 5.30871 7.18393 5.87132 6.62132C6.43393 6.05871 6.75 5.29565 6.75 4.5C6.75 3.70435 6.43393 2.94129 5.87132 2.37868C5.30871 1.81607 4.54565 1.5 3.75 1.5ZM4.65 19.497C4.24385 19.5173 3.8378 19.4549 3.45654 19.3134C3.07527 19.172 2.72674 18.9545 2.43212 18.6742C2.1375 18.3939 1.90295 18.0566 1.74271 17.6829C1.58247 17.3091 1.4999 16.9067 1.5 16.5V10.875C1.5 10.7755 1.53951 10.6802 1.60984 10.6098C1.68016 10.5395 1.77554 10.5 1.875 10.5H4.521C4.581 9.9495 4.776 9.438 5.0685 9H1.875C0.84 9 2.67571e-08 9.84 2.67571e-08 10.875V16.5C-6.99988e-05 17.1422 0.137308 17.7769 0.402903 18.3616C0.668497 18.9463 1.05616 19.4674 1.53983 19.8898C2.02351 20.3122 2.592 20.6263 3.2071 20.8108C3.8222 20.9953 4.46967 21.046 5.106 20.9595C4.90411 20.489 4.7513 19.9989 4.65 19.497ZM18.894 20.9595C19.5303 21.046 20.1778 20.9953 20.7929 20.8108C21.408 20.6263 21.9765 20.3122 22.4602 19.8898C22.9438 19.4674 23.3315 18.9463 23.5971 18.3616C23.8627 17.7769 24.0001 17.1422 24 16.5V10.875C24 9.84 23.16 9 22.125 9H18.9315C19.2255 9.438 19.419 9.9495 19.479 10.5H22.125C22.2245 10.5 22.3198 10.5395 22.3902 10.6098C22.4605 10.6802 22.5 10.7755 22.5 10.875V16.5C22.5001 16.9067 22.4175 17.3091 22.2573 17.6829C22.097 18.0566 21.8625 18.3939 21.5679 18.6742C21.2733 18.9545 20.9247 19.172 20.5435 19.3134C20.1622 19.4549 19.7561 19.5173 19.35 19.497C19.2487 19.9989 19.0959 20.489 18.894 20.9595ZM7.875 9C6.84 9 6 9.84 6 10.875V18C6 19.5913 6.63214 21.1174 7.75736 22.2426C8.88258 23.3679 10.4087 24 12 24C13.5913 24 15.1174 23.3679 16.2426 22.2426C17.3679 21.1174 18 19.5913 18 18V10.875C18 9.84 17.16 9 16.125 9H7.875ZM7.5 10.875C7.5 10.7755 7.53951 10.6802 7.60983 10.6098C7.68016 10.5395 7.77554 10.5 7.875 10.5H16.125C16.2245 10.5 16.3198 10.5395 16.3902 10.6098C16.4605 10.6802 16.5 10.7755 16.5 10.875V18C16.5 19.1935 16.0259 20.3381 15.182 21.182C14.3381 22.0259 13.1935 22.5 12 22.5C10.8065 22.5 9.66193 22.0259 8.81802 21.182C7.97411 20.3381 7.5 19.1935 7.5 18V10.875Z" fill="#FFE5B1"/>
</svg>
