<svg width="30" height="30" viewBox="0 0 30 30" fill="none" xmlns="http://www.w3.org/2000/svg">
<circle cx="15" cy="15" r="15" fill="#8CAAB9"/>
<path d="M20.5987 17.8882C20.5987 18.4002 20.5 18.9202 20.3027 19.4482C20.1107 19.9762 19.8173 20.4615 19.4227 20.9042C19.0333 21.3469 18.5373 21.7069 17.9347 21.9842C17.3373 22.2562 16.628 22.3922 15.8067 22.3922C14.7133 22.3922 13.78 22.1335 13.0067 21.6162C12.2333 21.0935 11.6413 20.3735 11.2307 19.4562C10.8253 18.5389 10.6227 17.4855 10.6227 16.2962C10.6227 15.1069 10.8253 14.0562 11.2307 13.1442C11.6413 12.2322 12.2333 11.5175 13.0067 11.0002C13.78 10.4829 14.7133 10.2242 15.8067 10.2242C16.7187 10.2242 17.4947 10.3895 18.1347 10.7202C18.78 11.0509 19.2947 11.4802 19.6787 12.0082C20.068 12.5362 20.332 13.0935 20.4707 13.6802C20.556 14.0375 20.5987 14.3815 20.5987 14.7122H18.1107C18.1107 14.5522 18.0973 14.3975 18.0707 14.2482C18.0173 13.8589 17.8947 13.5122 17.7027 13.2082C17.5107 12.9042 17.2547 12.6642 16.9347 12.4882C16.62 12.3069 16.244 12.2162 15.8067 12.2162C15.2947 12.2162 14.8387 12.3629 14.4387 12.6562C14.0387 12.9495 13.724 13.3975 13.4947 14.0002C13.2653 14.6029 13.1507 15.3682 13.1507 16.2962C13.1507 17.2295 13.2653 18.0002 13.4947 18.6082C13.724 19.2109 14.0387 19.6615 14.4387 19.9602C14.8387 20.2535 15.2947 20.4002 15.8067 20.4002C16.1747 20.4002 16.5 20.3335 16.7827 20.2002C17.0707 20.0669 17.3107 19.8829 17.5027 19.6482C17.7 19.4135 17.8493 19.1442 17.9507 18.8402C18.0573 18.5362 18.1107 18.2189 18.1107 17.8882H20.5987Z" fill="#212832"/>
</svg>
