<svg width="40" height="40" viewBox="0 0 40 40" fill="none" xmlns="http://www.w3.org/2000/svg">
<circle cx="20" cy="20" r="20" fill="#FFE5B1" fill-opacity="0.3"/>
<g clip-path="url(#clip0_61_644)">
<path fill-rule="evenodd" clip-rule="evenodd" d="M29.546 13.1111C29.8272 13.3924 29.9852 13.7738 29.9852 14.1716C29.9852 14.5693 29.8272 14.9508 29.546 15.2321L18.303 26.4751C18.1544 26.6237 17.978 26.7416 17.7839 26.822C17.5898 26.9024 17.3817 26.9438 17.1715 26.9438C16.9614 26.9438 16.7533 26.9024 16.5591 26.822C16.365 26.7416 16.1886 26.6237 16.04 26.4751L10.454 20.8901C10.3108 20.7517 10.1965 20.5862 10.1179 20.4032C10.0393 20.2202 9.99788 20.0233 9.99615 19.8242C9.99442 19.625 10.0324 19.4275 10.1078 19.2431C10.1832 19.0588 10.2946 18.8913 10.4354 18.7505C10.5763 18.6096 10.7438 18.4983 10.9281 18.4228C11.1124 18.3474 11.31 18.3095 11.5091 18.3112C11.7083 18.3129 11.9051 18.3543 12.0881 18.4329C12.2711 18.5115 12.4367 18.6258 12.575 18.7691L17.171 23.3651L27.424 13.1111C27.5633 12.9717 27.7287 12.8611 27.9108 12.7857C28.0928 12.7102 28.288 12.6714 28.485 12.6714C28.6821 12.6714 28.8772 12.7102 29.0593 12.7857C29.2413 12.8611 29.4067 12.9717 29.546 13.1111Z" fill="#FFE5B1"/>
</g>
<defs>
<clipPath id="clip0_61_644">
<rect width="24" height="24" fill="white" transform="translate(8 8)"/>
</clipPath>
</defs>
</svg>
