<svg width="40" height="40" viewBox="0 0 40 40" fill="none" xmlns="http://www.w3.org/2000/svg">
<circle cx="20" cy="20" r="20" fill="#FFE5B1" fill-opacity="0.3"/>
<path d="M20 19C21.3261 19 22.5979 19.5268 23.5355 20.4645C24.4732 21.4021 25 22.6739 25 24V30H23V24C23 23.2348 22.7077 22.4985 22.1827 21.9417C21.6578 21.385 20.9399 21.0499 20.176 21.005L20 21C19.2348 21 18.4985 21.2923 17.9417 21.8173C17.385 22.3422 17.0499 23.0601 17.005 23.824L17 24V30H15V24C15 22.6739 15.5268 21.4021 16.4645 20.4645C17.4021 19.5268 18.6739 19 20 19ZM13.5 22C13.779 22 14.05 22.033 14.31 22.094C14.139 22.603 14.0378 23.1328 14.009 23.669L14 24V24.086C13.8851 24.0449 13.7655 24.018 13.644 24.006L13.5 24C13.1273 24 12.7679 24.1388 12.4919 24.3892C12.2159 24.6397 12.043 24.984 12.007 25.355L12 25.5V30H10V25.5C10 24.5717 10.3687 23.6815 11.0251 23.0251C11.6815 22.3687 12.5717 22 13.5 22ZM26.5 22C27.4283 22 28.3185 22.3687 28.9749 23.0251C29.6313 23.6815 30 24.5717 30 25.5V30H28V25.5C28 25.1273 27.8612 24.7679 27.6108 24.4919C27.3603 24.2159 27.016 24.043 26.645 24.007L26.5 24C26.325 24 26.157 24.03 26 24.085V24C26 23.334 25.892 22.694 25.692 22.096C25.95 22.033 26.222 22 26.5 22ZM13.5 16C14.163 16 14.7989 16.2634 15.2678 16.7322C15.7366 17.2011 16 17.837 16 18.5C16 19.163 15.7366 19.7989 15.2678 20.2678C14.7989 20.7366 14.163 21 13.5 21C12.837 21 12.2011 20.7366 11.7322 20.2678C11.2634 19.7989 11 19.163 11 18.5C11 17.837 11.2634 17.2011 11.7322 16.7322C12.2011 16.2634 12.837 16 13.5 16ZM26.5 16C27.163 16 27.7989 16.2634 28.2678 16.7322C28.7366 17.2011 29 17.837 29 18.5C29 19.163 28.7366 19.7989 28.2678 20.2678C27.7989 20.7366 27.163 21 26.5 21C25.837 21 25.2011 20.7366 24.7322 20.2678C24.2634 19.7989 24 19.163 24 18.5C24 17.837 24.2634 17.2011 24.7322 16.7322C25.2011 16.2634 25.837 16 26.5 16ZM13.5 18C13.3674 18 13.2402 18.0527 13.1464 18.1464C13.0527 18.2402 13 18.3674 13 18.5C13 18.6326 13.0527 18.7598 13.1464 18.8536C13.2402 18.9473 13.3674 19 13.5 19C13.6326 19 13.7598 18.9473 13.8536 18.8536C13.9473 18.7598 14 18.6326 14 18.5C14 18.3674 13.9473 18.2402 13.8536 18.1464C13.7598 18.0527 13.6326 18 13.5 18ZM26.5 18C26.3674 18 26.2402 18.0527 26.1464 18.1464C26.0527 18.2402 26 18.3674 26 18.5C26 18.6326 26.0527 18.7598 26.1464 18.8536C26.2402 18.9473 26.3674 19 26.5 19C26.6326 19 26.7598 18.9473 26.8536 18.8536C26.9473 18.7598 27 18.6326 27 18.5C27 18.3674 26.9473 18.2402 26.8536 18.1464C26.7598 18.0527 26.6326 18 26.5 18ZM20 10C21.0609 10 22.0783 10.4214 22.8284 11.1716C23.5786 11.9217 24 12.9391 24 14C24 15.0609 23.5786 16.0783 22.8284 16.8284C22.0783 17.5786 21.0609 18 20 18C18.9391 18 17.9217 17.5786 17.1716 16.8284C16.4214 16.0783 16 15.0609 16 14C16 12.9391 16.4214 11.9217 17.1716 11.1716C17.9217 10.4214 18.9391 10 20 10ZM20 12C19.4696 12 18.9609 12.2107 18.5858 12.5858C18.2107 12.9609 18 13.4696 18 14C18 14.5304 18.2107 15.0391 18.5858 15.4142C18.9609 15.7893 19.4696 16 20 16C20.5304 16 21.0391 15.7893 21.4142 15.4142C21.7893 15.0391 22 14.5304 22 14C22 13.4696 21.7893 12.9609 21.4142 12.5858C21.0391 12.2107 20.5304 12 20 12Z" fill="#FFE5B1"/>
</svg>
