<svg width="40" height="40" viewBox="0 0 40 40" fill="none" xmlns="http://www.w3.org/2000/svg">
<circle cx="20" cy="20" r="20" fill="#FFE5B1" fill-opacity="0.3"/>
<g clip-path="url(#clip0_61_651)">
<path fill-rule="evenodd" clip-rule="evenodd" d="M24 22C25.3261 22 26.5979 22.5268 27.5355 23.4645C28.4732 24.4021 29 25.6739 29 27V29C29 29.2652 28.8946 29.5196 28.7071 29.7071C28.5196 29.8946 28.2652 30 28 30C27.7348 30 27.4804 29.8946 27.2929 29.7071C27.1054 29.5196 27 29.2652 27 29V27C27 26.2044 26.6839 25.4413 26.1213 24.8787C25.5587 24.3161 24.7956 24 24 24H16C15.2044 24 14.4413 24.3161 13.8787 24.8787C13.3161 25.4413 13 26.2044 13 27V29C13 29.2652 12.8946 29.5196 12.7071 29.7071C12.5196 29.8946 12.2652 30 12 30C11.7348 30 11.4804 29.8946 11.2929 29.7071C11.1054 29.5196 11 29.2652 11 29V27C11 25.6739 11.5268 24.4021 12.4645 23.4645C13.4021 22.5268 14.6739 22 16 22H24ZM28 16C28.2652 16 28.5196 16.1054 28.7071 16.2929C28.8946 16.4804 29 16.7348 29 17V18H30C30.2652 18 30.5196 18.1054 30.7071 18.2929C30.8946 18.4804 31 18.7348 31 19C31 19.2652 30.8946 19.5196 30.7071 19.7071C30.5196 19.8946 30.2652 20 30 20H29V21C29 21.2652 28.8946 21.5196 28.7071 21.7071C28.5196 21.8946 28.2652 22 28 22C27.7348 22 27.4804 21.8946 27.2929 21.7071C27.1054 21.5196 27 21.2652 27 21V20H26C25.7348 20 25.4804 19.8946 25.2929 19.7071C25.1054 19.5196 25 19.2652 25 19C25 18.7348 25.1054 18.4804 25.2929 18.2929C25.4804 18.1054 25.7348 18 26 18H27V17C27 16.7348 27.1054 16.4804 27.2929 16.2929C27.4804 16.1054 27.7348 16 28 16ZM20 10C21.3261 10 22.5979 10.5268 23.5355 11.4645C24.4732 12.4021 25 13.6739 25 15C25 16.3261 24.4732 17.5979 23.5355 18.5355C22.5979 19.4732 21.3261 20 20 20C18.6739 20 17.4021 19.4732 16.4645 18.5355C15.5268 17.5979 15 16.3261 15 15C15 13.6739 15.5268 12.4021 16.4645 11.4645C17.4021 10.5268 18.6739 10 20 10ZM20 12C19.606 12 19.2159 12.0776 18.8519 12.2284C18.488 12.3791 18.1573 12.6001 17.8787 12.8787C17.6001 13.1573 17.3791 13.488 17.2284 13.8519C17.0776 14.2159 17 14.606 17 15C17 15.394 17.0776 15.7841 17.2284 16.1481C17.3791 16.512 17.6001 16.8427 17.8787 17.1213C18.1573 17.3999 18.488 17.6209 18.8519 17.7716C19.2159 17.9224 19.606 18 20 18C20.7956 18 21.5587 17.6839 22.1213 17.1213C22.6839 16.5587 23 15.7956 23 15C23 14.2044 22.6839 13.4413 22.1213 12.8787C21.5587 12.3161 20.7956 12 20 12Z" fill="#FFE5B1"/>
</g>
<defs>
<clipPath id="clip0_61_651">
<rect width="24" height="24" fill="white" transform="translate(8 8)"/>
</clipPath>
</defs>
</svg>
